<svg width="8" height="16" viewBox="0 0 8 16" fill="none" xmlns="http://www.w3.org/2000/svg">
<path d="M1.42516 15.225C1.26683 15.225 1.1085 15.1667 0.983496 15.0417C0.741829 14.8 0.741829 14.4 0.983496 14.1583L6.41683 8.72502C6.81683 8.32502 6.81683 7.67502 6.41683 7.27502L0.983496 1.84168C0.741829 1.60002 0.741829 1.20002 0.983496 0.95835C1.22516 0.716683 1.62516 0.716683 1.86683 0.95835L7.30016 6.39168C7.72516 6.81668 7.96683 7.39168 7.96683 8.00002C7.96683 8.60835 7.7335 9.18335 7.30016 9.60835L1.86683 15.0417C1.74183 15.1584 1.5835 15.225 1.42516 15.225Z" fill="#292D32"/>
</svg>
