<svg width="9" height="9" viewBox="0 0 9 9" fill="none" xmlns="http://www.w3.org/2000/svg">
<path d="M6.31342 6.66675H2.76341C2.43341 6.66675 2.11675 6.52675 1.89341 6.28342C1.67008 6.04008 1.55675 5.71341 1.58341 5.38341L1.86008 2.06342C1.87008 1.96008 1.83341 1.86008 1.76341 1.78342C1.69341 1.70675 1.59675 1.66675 1.49341 1.66675H0.916748C0.780081 1.66675 0.666748 1.55341 0.666748 1.41675C0.666748 1.28008 0.780081 1.16675 0.916748 1.16675H1.49675C1.74008 1.16675 1.97008 1.27008 2.13341 1.44675C2.22341 1.54675 2.29008 1.66342 2.32675 1.79342H6.49008C6.82675 1.79342 7.13675 1.92675 7.36341 2.16675C7.58675 2.41008 7.70008 2.72675 7.67342 3.06342L7.49341 5.56342C7.45675 6.17342 6.92342 6.66675 6.31342 6.66675ZM2.34341 2.29008L2.08341 5.42341C2.06675 5.61674 2.13008 5.80008 2.26008 5.94341C2.39008 6.08674 2.57008 6.16341 2.76341 6.16341H6.31342C6.66008 6.16341 6.97341 5.87008 7.00008 5.52342L7.18008 3.02342C7.19341 2.82675 7.13008 2.64008 7.00008 2.50342C6.87008 2.36342 6.69008 2.28674 6.49341 2.28674H2.34341V2.29008Z" fill="#F5F0EC"/>
<path d="M5.66667 8.33333C5.3 8.33333 5 8.03333 5 7.66667C5 7.3 5.3 7 5.66667 7C6.03333 7 6.33333 7.3 6.33333 7.66667C6.33333 8.03333 6.03333 8.33333 5.66667 8.33333ZM5.66667 7.5C5.57333 7.5 5.5 7.57333 5.5 7.66667C5.5 7.76 5.57333 7.83333 5.66667 7.83333C5.76 7.83333 5.83333 7.76 5.83333 7.66667C5.83333 7.57333 5.76 7.5 5.66667 7.5Z" fill="#F5F0EC"/>
<path d="M2.99992 8.33333C2.63325 8.33333 2.33325 8.03333 2.33325 7.66667C2.33325 7.3 2.63325 7 2.99992 7C3.36659 7 3.66659 7.3 3.66659 7.66667C3.66659 8.03333 3.36659 8.33333 2.99992 8.33333ZM2.99992 7.5C2.90659 7.5 2.83325 7.57333 2.83325 7.66667C2.83325 7.76 2.90659 7.83333 2.99992 7.83333C3.09325 7.83333 3.16659 7.76 3.16659 7.66667C3.16659 7.57333 3.09325 7.5 2.99992 7.5Z" fill="#F5F0EC"/>
<path d="M7.25 3.66675H3.25C3.11333 3.66675 3 3.55341 3 3.41675C3 3.28008 3.11333 3.16675 3.25 3.16675H7.25C7.38667 3.16675 7.5 3.28008 7.5 3.41675C7.5 3.55341 7.38667 3.66675 7.25 3.66675Z" fill="#F5F0EC"/>
</svg>
