<svg width="10" height="11" viewBox="0 0 10 11" fill="none" xmlns="http://www.w3.org/2000/svg">
<path d="M8.52466 3.60122C8.51677 3.60122 8.50493 3.60122 8.49308 3.60122C6.40483 3.392 4.32052 3.31305 2.25594 3.52227L1.45064 3.60122C1.28484 3.61701 1.13878 3.49858 1.12299 3.33279C1.1072 3.16699 1.22563 3.02488 1.38748 3.00909L2.19278 2.93014C4.29288 2.71697 6.42062 2.79987 8.5523 3.00909C8.71415 3.02488 8.83257 3.17094 8.81678 3.33279C8.80494 3.48674 8.67467 3.60122 8.52466 3.60122Z" fill="#6A3948"/>
<path d="M3.59031 3.20255C3.57451 3.20255 3.55872 3.20255 3.53899 3.1986C3.38108 3.17097 3.27055 3.01701 3.29819 2.85911L3.38503 2.34198C3.44819 1.96301 3.53504 1.43799 4.45482 1.43799H5.48908C6.41281 1.43799 6.49966 1.98275 6.55887 2.34593L6.64571 2.85911C6.67335 3.02096 6.56282 3.17491 6.40491 3.1986C6.24306 3.22623 6.08911 3.1157 6.06542 2.9578L5.97858 2.44462C5.92331 2.10118 5.91147 2.03407 5.49303 2.03407H4.45877C4.04033 2.03407 4.03243 2.08934 3.97322 2.44067L3.88242 2.95385C3.85874 3.09991 3.73242 3.20255 3.59031 3.20255Z" fill="#6A3948"/>
<path d="M6.23927 9.92522H3.70494C2.32724 9.92522 2.27198 9.16334 2.22855 8.54752L1.97196 4.57233C1.96012 4.41048 2.08644 4.26837 2.24829 4.25653C2.41409 4.24863 2.55225 4.37101 2.56409 4.53285L2.82069 8.50805C2.86411 9.10807 2.8799 9.33308 3.70494 9.33308H6.23927C7.06826 9.33308 7.08405 9.10807 7.12352 8.50805L7.38012 4.53285C7.39196 4.37101 7.53407 4.24863 7.69592 4.25653C7.85777 4.26837 7.98409 4.40653 7.97225 4.57233L7.71566 8.54752C7.67223 9.16334 7.61697 9.92522 6.23927 9.92522Z" fill="#6A3948"/>
<path d="M5.62721 7.75406H4.31267C4.15082 7.75406 4.0166 7.61984 4.0166 7.45799C4.0166 7.29614 4.15082 7.16193 4.31267 7.16193H5.62721C5.78906 7.16193 5.92327 7.29614 5.92327 7.45799C5.92327 7.61984 5.78906 7.75406 5.62721 7.75406Z" fill="#6A3948"/>
<path d="M5.95881 6.17502H3.98503C3.82318 6.17502 3.68896 6.0408 3.68896 5.87895C3.68896 5.7171 3.82318 5.58289 3.98503 5.58289H5.95881C6.12066 5.58289 6.25488 5.7171 6.25488 5.87895C6.25488 6.0408 6.12066 6.17502 5.95881 6.17502Z" fill="#6A3948"/>
</svg>
